<?xml version="1.0" encoding="UTF-8" standalone="no"?>
<svg width="140px" height="140px" viewBox="0 0 387 343" version="1.1" id="rpd-logo" xmlns="http://www.w3.org/2000/svg" xmlns:xlink="http://www.w3.org/1999/xlink">
    <title>rpd-logo</title>
    <defs></defs>
    <g id="Page-1" stroke="none" stroke-width="1" fill="none" fill-rule="evenodd">
        <circle id="Oval-1" fill="#000000" cx="207" cy="172" r="165"/>
        <circle id="Oval-2" stroke="#FFFFFF" stroke-width="17" fill="#000000" cx="26.5" cy="172.5" r="28.5" />
        <path id="RPD-text" d="M 0,0 L -10.865454599999993,0 L -10.865454599999993,-104.727273 L 25.00363680000001,-104.727273 C 34.95277680000001,-104.727273,42.39270280000001,-102.480022,47.32363679999999,-97.985455 C 52.2545698,-93.49088699999999,54.7199998,-86.66186400000001,54.7199998,-77.49818200000001 L 54.7199998,-69.64363599999999 C 54.7199998,-61.003592999999995,52.7127478,-54.37093200000001,48.6981818,-49.74545499999999 C 44.6836158,-45.119977000000006,38.574586800000006,-42.414548999999994,30.37090880000001,-41.62909099999999 L 55.63636380000001,0 L 43.06909080000001,0 L 17.93454580000001,-41.498182000000014 L 0,-41.498182000000014 L 0,0 Z  M 0,-51.05454499999999 L 25.134545799999998,-51.05454499999999 C 31.8545788,-51.05454499999999,36.65453079999999,-52.494530999999995,39.534545800000004,-55.37454500000001 C 42.41455979999999,-58.25456,43.8545458,-62.967240000000004,43.8545458,-69.51272700000001 L 43.8545458,-77.75999999999999 C 43.8545458,-83.781848,42.41455979999999,-88.145441,39.534545800000004,-90.850909 C 36.65453079999999,-93.556377,31.8545788,-94.90909099999999,25.134545799999998,-94.90909099999999 L 0,-94.90909099999999 L 0,-51.05454499999999 Z  M 75.79636380000001,0 L 75.79636380000001,-104.727273 L 109.17818179999999,-104.727273 C 119.30186880000001,-104.727273,126.7417948,-102.50184,131.4981818,-98.050909 C 136.25456880000002,-93.599978,138.6327268,-86.705501,138.6327268,-77.36727300000001 L 138.6327268,-65.585455 C 138.6327268,-56.24722600000001,136.23275080000002,-49.287296,131.4327268,-44.705455 C 126.63270279999999,-40.123613000000006,119.1709598,-37.832727000000006,109.04727280000002,-37.832727000000006 L 86.66181780000001,-37.832727000000006 L 86.66181780000001,0 L 75.79636380000001,0 Z  M 86.66181780000001,-47.38909100000001 L 109.04727280000002,-47.38909100000001 C 115.8545798,-47.38909100000001,120.69816780000001,-48.78544099999999,123.5781818,-51.578182 C 126.45819580000001,-54.370923000000005,127.89818179999999,-58.90905900000001,127.89818179999999,-65.19272699999999 L 127.89818179999999,-77.36727300000001 C 127.89818179999999,-83.56366700000001,126.45819580000001,-88.03635,123.5781818,-90.78545500000001 C 120.69816780000001,-93.534559,115.8545798,-94.90909099999999,109.04727280000002,-94.90909099999999 L 86.66181780000001,-94.90909099999999 L 86.66181780000001,-47.38909100000001 Z  M 157.45818179999998,0 L 157.45818179999998,-104.727273 L 182.9854548,-104.727273 C 194.15641979999998,-104.727273,202.9490588,-101.367306,209.3636368,-94.64727300000001 C 215.7782138,-87.92723899999999,218.9854548,-78.93823800000001,218.9854548,-67.68 L 218.9854548,-36.52363600000001 C 218.9854548,-25.439944999999994,215.7782138,-16.581851,209.3636368,-9.94909100000001 C 202.9490588,-3.3163299999999936,194.15641979999998,0,182.9854548,0 L 157.45818179999998,0 Z  M 168.32363679999997,-9.818182000000007 L 183.24727279999996,-9.818182000000007 C 191.53822279999997,-9.818182000000007,197.75634279999997,-12.261794000000009,201.9018178,-17.149091 C 206.04729379999998,-22.036387999999988,208.11999980000002,-28.27632600000001,208.11999980000002,-35.869091 L 208.11999980000002,-68.33454499999999 C 208.11999980000002,-75.927311,206.04729379999998,-82.25452000000001,201.9018178,-87.316364 C 197.75634279999997,-92.378207,191.53822279999997,-94.90909099999999,183.24727279999996,-94.90909099999999 L 168.32363679999997,-94.90909099999999 L 168.32363679999997,-9.818182000000007 Z  M 278.7054548,-51.578182 C 274.77816179999996,-51.578182,271.5927398,-52.385446,269.1490908,-54 C 266.7054428,-55.614554,265.4836368,-58.29816299999999,265.4836368,-62.05090899999999 L 265.4836368,-67.549091 C 265.4836368,-71.38910999999999,266.7054428,-74.15999099999999,269.1490908,-75.861818 C 271.5927398,-77.56364500000001,274.77816179999996,-78.414545,278.7054548,-78.414545 C 282.6327468,-78.414545,285.79635179999997,-77.56364500000001,288.1963638,-75.861818 C 290.5963758,-74.15999099999999,291.7963638,-71.38910999999999,291.7963638,-67.549091 L 291.7963638,-62.05090899999999 C 291.7963638,-58.29816299999999,290.5527398,-55.614554,288.0654548,-54 C 285.5781698,-52.385446,282.4582008,-51.578182,278.7054548,-51.578182 Z  M 260.6399998,28.538182000000006 L 271.7672728,-23.694545000000005 L 295.06909079999997,-23.694545000000005 L 270.3272728,28.538182000000006 L 260.6399998,28.538182000000006 Z" transform="translate(91.7418182 223)" fill="#FFFFFF" />
    </g>
</svg>
