<?xml version="1.0" encoding="UTF-8" standalone="no"?>
<svg width="953px" height="579px" viewBox="0 0 953 579" version="1.1" xmlns="http://www.w3.org/2000/svg" xmlns:xlink="http://www.w3.org/1999/xlink" xmlns:sketch="http://www.bohemiancoding.com/sketch/ns">
    <title>patch@2x</title>
    <description>Created with Sketch (http://www.bohemiancoding.com/sketch)</description>
    <defs>
        <radialGradient cx="50%" cy="47.5132042%" fx="50%" fy="47.5132042%" r="56.3900352%" id="radialGradient-1" stop-color="#FFFFFF">
            <stop stop-opacity="0" offset="0%"></stop>
            <stop offset="100%"></stop>
        </radialGradient>
        <linearGradient x1="79.3274715%" y1="95.081062%" x2="45.496673%" y2="56.5906955%" id="linearGradient-2">
            <stop stop-color="#980101" offset="0%"></stop>
            <stop stop-color="#0157B0" offset="100%"></stop>
        </linearGradient>
    </defs>
    <g id="Page-1" stroke="none" stroke-width="1" fill="none" fill-rule="evenodd" sketch:type="MSPage">
        <rect id="Rectangle-21" sketch:type="MSShapeGroup" x="-38" y="-39" width="1184" height="954"></rect>
        <rect id="Rectangle-1" fill="#ECECEC" sketch:type="MSShapeGroup" x="42" y="34" width="1042" height="526"></rect>
        <rect id="Rectangle-1" sketch:type="MSShapeGroup" x="32" y="24" width="1042" height="526"></rect>
        <g id="Node" sketch:type="MSLayerGroup" transform="translate(121.000000, 126.000000)">
            <rect id="Rectangle-22" fill="#D4D4D4" sketch:type="MSShapeGroup" x="14" y="11" width="105" height="165"></rect>
            <path d="M5,18 L5,168 L111,168 L111,18 L5,18 Z" id="Rectangle-2" stroke="#000000" stroke-width="2" fill="#FFFFFF" sketch:type="MSShapeGroup"></path>
            <rect id="Rectangle-3" stroke="#000000" stroke-width="2" fill="#000000" sketch:type="MSShapeGroup" x="5" y="2" width="106" height="18"></rect>
            <text id="My-Node" sketch:type="MSTextLayer" font-family="Lucida Grande" font-size="10" font-weight="normal" line-spacing="16" fill="#FFFFFF">
                <tspan x="12" y="10">My Node</tspan>
            </text>
            <circle id="Oval-1" stroke="#000000" fill="#FFFFFF" sketch:type="MSShapeGroup" cx="6" cy="48" r="6"></circle>
            <circle id="Oval-1" stroke="#000000" fill="#FFFFFF" sketch:type="MSShapeGroup" cx="6" cy="77" r="6"></circle>
            <circle id="Oval-1" stroke="#000000" fill="#FFFFFF" sketch:type="MSShapeGroup" cx="6" cy="105" r="6"></circle>
            <circle id="Oval-1" stroke="#000000" fill="#FFFFFF" sketch:type="MSShapeGroup" cx="6" cy="137" r="6"></circle>
            <circle id="Oval-1" stroke="#000000" fill="#FFFFFF" sketch:type="MSShapeGroup" cx="109" cy="48" r="6"></circle>
            <circle id="Oval-1" stroke="#000000" fill="#FFFFFF" sketch:type="MSShapeGroup" cx="109" cy="77" r="6"></circle>
            <circle id="Oval-1" stroke="#000000" fill="#FFFFFF" sketch:type="MSShapeGroup" cx="109" cy="105" r="6"></circle>
            <rect id="Rectangle-4" stroke="#000000" stroke-dasharray="5" sketch:type="MSShapeGroup" x="19" y="33" width="78" height="120"></rect>
        </g>
        <g id="Node" sketch:type="MSLayerGroup" transform="translate(251.000000, 339.000000)">
            <rect id="Rectangle-22" fill="#D4D4D4" sketch:type="MSShapeGroup" x="14" y="11" width="105" height="165"></rect>
            <path d="M5,18 L5,168 L111,168 L111,18 L5,18 Z" id="Rectangle-2" stroke="#000000" stroke-width="2" fill="#FFFFFF" sketch:type="MSShapeGroup"></path>
            <rect id="Rectangle-3" stroke="#000000" stroke-width="2" fill="#000000" sketch:type="MSShapeGroup" x="5" y="2" width="106" height="18"></rect>
            <text id="My-Node" sketch:type="MSTextLayer" font-family="Lucida Grande" font-size="10" font-weight="normal" line-spacing="16" fill="#FFFFFF">
                <tspan x="12" y="10">My Node</tspan>
            </text>
            <circle id="Oval-1" stroke="#000000" fill="#FFFFFF" sketch:type="MSShapeGroup" cx="6" cy="48" r="6"></circle>
            <circle id="Oval-1" stroke="#000000" fill="#FFFFFF" sketch:type="MSShapeGroup" cx="6" cy="77" r="6"></circle>
            <circle id="Oval-1" stroke="#000000" fill="#FFFFFF" sketch:type="MSShapeGroup" cx="6" cy="105" r="6"></circle>
            <circle id="Oval-1" stroke="#000000" fill="#FFFFFF" sketch:type="MSShapeGroup" cx="6" cy="137" r="6"></circle>
            <circle id="Oval-1" stroke="#000000" fill="#FFFFFF" sketch:type="MSShapeGroup" cx="109" cy="48" r="6"></circle>
            <circle id="Oval-1" stroke="#000000" fill="#FFFFFF" sketch:type="MSShapeGroup" cx="109" cy="77" r="6"></circle>
            <circle id="Oval-1" stroke="#000000" fill="#FFFFFF" sketch:type="MSShapeGroup" cx="109" cy="105" r="6"></circle>
            <rect id="Rectangle-4" stroke="#000000" stroke-dasharray="5" sketch:type="MSShapeGroup" x="19" y="33" width="78" height="120"></rect>
        </g>
        <g id="Node" sketch:type="MSLayerGroup" transform="translate(492.000000, 216.000000)">
            <rect id="Rectangle-22" fill="#D4D4D4" sketch:type="MSShapeGroup" x="13" y="10" width="105" height="165"></rect>
            <path d="M5,18 L5,168 L111,168 L111,18 L5,18 Z" id="Rectangle-2" stroke="#000000" stroke-width="2" fill="#FFFFFF" sketch:type="MSShapeGroup"></path>
            <rect id="Rectangle-3" stroke="#000000" stroke-width="2" fill="#000000" sketch:type="MSShapeGroup" x="5" y="2" width="106" height="18"></rect>
            <text id="My-Node" sketch:type="MSTextLayer" font-family="Lucida Grande" font-size="10" font-weight="normal" line-spacing="16" fill="#FFFFFF">
                <tspan x="12" y="10">My Node</tspan>
            </text>
            <circle id="Oval-1" stroke="#000000" fill="#FFFFFF" sketch:type="MSShapeGroup" cx="6" cy="48" r="6"></circle>
            <circle id="Oval-1" stroke="#000000" fill="#FFFFFF" sketch:type="MSShapeGroup" cx="6" cy="77" r="6"></circle>
            <circle id="Oval-1" stroke="#000000" fill="#FFFFFF" sketch:type="MSShapeGroup" cx="6" cy="105" r="6"></circle>
            <circle id="Oval-1" stroke="#000000" fill="#FFFFFF" sketch:type="MSShapeGroup" cx="6" cy="137" r="6"></circle>
            <circle id="Oval-1" stroke="#000000" fill="#FFFFFF" sketch:type="MSShapeGroup" cx="109" cy="48" r="6"></circle>
            <circle id="Oval-1" stroke="#000000" fill="#FFFFFF" sketch:type="MSShapeGroup" cx="109" cy="77" r="6"></circle>
            <circle id="Oval-1" stroke="#000000" fill="#FFFFFF" sketch:type="MSShapeGroup" cx="109" cy="105" r="6"></circle>
            <rect id="Rectangle-4" stroke="#000000" stroke-dasharray="5" sketch:type="MSShapeGroup" x="19" y="33" width="78" height="120"></rect>
        </g>
        <g id="Node" sketch:type="MSLayerGroup" transform="translate(732.000000, 351.000000)">
            <rect id="Rectangle-22" fill="#D4D4D4" sketch:type="MSShapeGroup" x="13" y="9" width="105" height="165"></rect>
            <path d="M5,18 L5,168 L111,168 L111,18 L5,18 Z" id="Rectangle-2" stroke="#000000" stroke-width="2" fill="#FFFFFF" sketch:type="MSShapeGroup"></path>
            <rect id="Rectangle-3" stroke="#000000" stroke-width="2" fill="#000000" sketch:type="MSShapeGroup" x="5" y="2" width="106" height="18"></rect>
            <text id="My-Node" sketch:type="MSTextLayer" font-family="Lucida Grande" font-size="10" font-weight="normal" line-spacing="16" fill="#FFFFFF">
                <tspan x="12" y="10">My Node</tspan>
            </text>
            <circle id="Oval-1" stroke="#000000" fill="#FFFFFF" sketch:type="MSShapeGroup" cx="6" cy="48" r="6"></circle>
            <circle id="Oval-1" stroke="#000000" fill="#FFFFFF" sketch:type="MSShapeGroup" cx="6" cy="77" r="6"></circle>
            <circle id="Oval-1" stroke="#000000" fill="#FFFFFF" sketch:type="MSShapeGroup" cx="6" cy="105" r="6"></circle>
            <circle id="Oval-1" stroke="#000000" fill="#FFFFFF" sketch:type="MSShapeGroup" cx="6" cy="137" r="6"></circle>
            <circle id="Oval-1" stroke="#000000" fill="#FFFFFF" sketch:type="MSShapeGroup" cx="109" cy="48" r="6"></circle>
            <circle id="Oval-1" stroke="#000000" fill="#FFFFFF" sketch:type="MSShapeGroup" cx="109" cy="77" r="6"></circle>
            <circle id="Oval-1" stroke="#000000" fill="#FFFFFF" sketch:type="MSShapeGroup" cx="109" cy="105" r="6"></circle>
            <rect id="Rectangle-4" stroke="#000000" stroke-dasharray="5" sketch:type="MSShapeGroup" x="19" y="33" width="78" height="120"></rect>
        </g>
        <g id="Node" sketch:type="MSLayerGroup" transform="translate(701.000000, 81.000000)">
            <rect id="Rectangle-22" fill="#D4D4D4" sketch:type="MSShapeGroup" x="14" y="11" width="105" height="165"></rect>
            <path d="M5,18 L5,168 L111,168 L111,18 L5,18 Z" id="Rectangle-2" stroke="#000000" stroke-width="2" fill="#FFFFFF" sketch:type="MSShapeGroup"></path>
            <rect id="Rectangle-3" stroke="#000000" stroke-width="2" fill="#000000" sketch:type="MSShapeGroup" x="5" y="2" width="106" height="18"></rect>
            <text id="My-Node" sketch:type="MSTextLayer" font-family="Lucida Grande" font-size="10" font-weight="normal" line-spacing="16" fill="#FFFFFF">
                <tspan x="12" y="10">My Node</tspan>
            </text>
            <circle id="Oval-1" stroke="#000000" fill="#FFFFFF" sketch:type="MSShapeGroup" cx="6" cy="48" r="6"></circle>
            <circle id="Oval-1" stroke="#000000" fill="#FFFFFF" sketch:type="MSShapeGroup" cx="6" cy="77" r="6"></circle>
            <circle id="Oval-1" stroke="#000000" fill="#FFFFFF" sketch:type="MSShapeGroup" cx="6" cy="105" r="6"></circle>
            <circle id="Oval-1" stroke="#000000" fill="#FFFFFF" sketch:type="MSShapeGroup" cx="6" cy="137" r="6"></circle>
            <circle id="Oval-1" stroke="#000000" fill="#FFFFFF" sketch:type="MSShapeGroup" cx="109" cy="48" r="6"></circle>
            <circle id="Oval-1" stroke="#000000" fill="#FFFFFF" sketch:type="MSShapeGroup" cx="109" cy="77" r="6"></circle>
            <circle id="Oval-1" stroke="#000000" fill="#FFFFFF" sketch:type="MSShapeGroup" cx="109" cy="105" r="6"></circle>
            <rect id="Rectangle-4" stroke="#000000" stroke-dasharray="5" sketch:type="MSShapeGroup" x="19" y="33" width="78" height="120"></rect>
        </g>
        <rect id="Rectangle-32" fill="#D8D8D8" sketch:type="MSShapeGroup" x="-27" y="-25" width="119" height="35"></rect>
        <text id="Network" stroke="#979797" fill="#000000" sketch:type="MSTextLayer" font-family="Lucida Grande" font-size="24" font-weight="normal" line-spacing="16">
            <tspan x="-17" y="13">Network</tspan>
        </text>
        <rect id="Rectangle-33" fill="#FFFFFF" sketch:type="MSShapeGroup" x="55" y="48" width="77" height="30"></rect>
        <text id="Patch" sketch:type="MSTextLayer" font-family="Lucida Grande" font-size="24" font-weight="normal" line-spacing="16" fill="#000000">
            <tspan x="61" y="82">Patch</tspan>
        </text>
        <path d="M230,174 L377,174 L453,293 L498,293" id="Path-1" stroke="#000000" stroke-width="3" stroke-linecap="round" sketch:type="MSShapeGroup"></path>
        <path d="M601,321 L617,321 L693,428 L738,428" id="Path-1" stroke="#000000" stroke-width="3" stroke-linecap="round" sketch:type="MSShapeGroup"></path>
        <path d="M601,218 L637,218 L677,292 L707,293" id="Path-1" stroke="#000000" stroke-width="3" stroke-linecap="round" sketch:type="MSShapeGroup" transform="translate(654.000000, 255.500000) scale(1, -1) translate(-654.000000, -255.500000) "></path>
        <path d="M230,174 L377,174 L453,457 L738,456" id="Path-1" stroke="#000000" stroke-width="3" stroke-linecap="round" sketch:type="MSShapeGroup"></path>
        <path d="M-124.000436,-85 C-128.418473,-85 -132,-81.4265325 -132,-77.0007815 L-132,598.000782 C-132,602.418628 -128.416648,606 -124.000436,606 L1164.00044,606 C1168.41847,606 1172,602.426533 1172,598.000782 L1172,-77.0007815 C1172,-81.4186279 1168.41665,-85 1164.00044,-85 L-124.000436,-85 Z M36.9945161,25 C34.7884058,25 33,26.7980684 33,28.9984861 L33,546.001514 C33,548.209817 34.7967827,550 36.9945161,550 L914.005484,550 C916.211594,550 918,548.201932 918,546.001514 L918,28.9984861 C918,26.7901832 916.203217,25 914.005484,25 L36.9945161,25 Z" id="Patch-Frame" stroke="url(#linearGradient-2)" stroke-width="3" fill="url(#radialGradient-1)" sketch:type="MSShapeGroup"></path>
    </g>
</svg>