<?xml version="1.0" encoding="UTF-8" standalone="no"?>
<svg width="763px" height="409px" viewBox="0 0 763 409" version="1.1" xmlns="http://www.w3.org/2000/svg" xmlns:xlink="http://www.w3.org/1999/xlink" xmlns:sketch="http://www.bohemiancoding.com/sketch/ns">
    <title>rpd-network@2x</title>
    <description>Created with Sketch (http://www.bohemiancoding.com/sketch)</description>
    <defs>
        <filter x="-50%" y="-50%" width="200%" height="200%" filterUnits="objectBoundingBox" id="filter-1">
            <feOffset dx="2" dy="3" in="SourceAlpha" result="shadowOffsetOuter1"></feOffset>
            <feGaussianBlur stdDeviation="1.5" in="shadowOffsetOuter1" result="shadowBlurOuter1"></feGaussianBlur>
            <feColorMatrix values="0 0 0 0 0.831438303   0 0 0 0 0.831319273   0 0 0 0 0.831478775  0 0 0 0.7 0" in="shadowBlurOuter1" type="matrix" result="shadowMatrixOuter1"></feColorMatrix>
            <feMerge>
                <feMergeNode in="shadowMatrixOuter1"></feMergeNode>
                <feMergeNode in="SourceGraphic"></feMergeNode>
            </feMerge>
        </filter>
        <linearGradient x1="0%" y1="0%" x2="100%" y2="100%" id="linearGradient-2" stop-opacity="0.5">
            <stop stop-color="#FFFFFF" offset="0%"></stop>
            <stop stop-color="#000000" offset="100%"></stop>
        </linearGradient>
        <circle id="path-3" cx="63.5" cy="48.5" r="18.5"></circle>
        <filter x="-50%" y="-50%" width="200%" height="200%" filterUnits="objectBoundingBox" id="filter-4">
            <feOffset dx="2" dy="3" in="SourceAlpha" result="shadowOffsetOuter1"></feOffset>
            <feGaussianBlur stdDeviation="1.5" in="shadowOffsetOuter1" result="shadowBlurOuter1"></feGaussianBlur>
            <feColorMatrix values="0 0 0 0 0.831438303   0 0 0 0 0.831319273   0 0 0 0 0.831478775  0 0 0 0.7 0" in="shadowBlurOuter1" type="matrix" result="shadowMatrixOuter1"></feColorMatrix>
            <feMerge>
                <feMergeNode in="shadowMatrixOuter1"></feMergeNode>
                <feMergeNode in="SourceGraphic"></feMergeNode>
            </feMerge>
        </filter>
        <linearGradient x1="100%" y1="0%" x2="0%" y2="100%" id="linearGradient-5" stop-opacity="0.5">
            <stop stop-color="#FFFFFF" offset="0%"></stop>
            <stop stop-color="#000000" offset="100%"></stop>
        </linearGradient>
        <circle id="path-6" cx="63.5" cy="48.5" r="18.5"></circle>
        <filter x="-50%" y="-50%" width="200%" height="200%" filterUnits="objectBoundingBox" id="filter-7">
            <feOffset dx="2" dy="3" in="SourceAlpha" result="shadowOffsetOuter1"></feOffset>
            <feGaussianBlur stdDeviation="1.5" in="shadowOffsetOuter1" result="shadowBlurOuter1"></feGaussianBlur>
            <feColorMatrix values="0 0 0 0 0.831438303   0 0 0 0 0.831319273   0 0 0 0 0.831478775  0 0 0 0.7 0" in="shadowBlurOuter1" type="matrix" result="shadowMatrixOuter1"></feColorMatrix>
            <feMerge>
                <feMergeNode in="shadowMatrixOuter1"></feMergeNode>
                <feMergeNode in="SourceGraphic"></feMergeNode>
            </feMerge>
        </filter>
        <filter x="-50%" y="-50%" width="200%" height="200%" filterUnits="objectBoundingBox" id="filter-8">
            <feOffset dx="2" dy="3" in="SourceAlpha" result="shadowOffsetOuter1"></feOffset>
            <feGaussianBlur stdDeviation="1.5" in="shadowOffsetOuter1" result="shadowBlurOuter1"></feGaussianBlur>
            <feColorMatrix values="0 0 0 0 0.831438303   0 0 0 0 0.831319273   0 0 0 0 0.831478775  0 0 0 0.7 0" in="shadowBlurOuter1" type="matrix" result="shadowMatrixOuter1"></feColorMatrix>
            <feMerge>
                <feMergeNode in="shadowMatrixOuter1"></feMergeNode>
                <feMergeNode in="SourceGraphic"></feMergeNode>
            </feMerge>
        </filter>
        <filter x="-50%" y="-50%" width="200%" height="200%" filterUnits="objectBoundingBox" id="filter-9">
            <feOffset dx="2" dy="3" in="SourceAlpha" result="shadowOffsetOuter1"></feOffset>
            <feGaussianBlur stdDeviation="1.5" in="shadowOffsetOuter1" result="shadowBlurOuter1"></feGaussianBlur>
            <feColorMatrix values="0 0 0 0 0.831438303   0 0 0 0 0.831319273   0 0 0 0 0.831478775  0 0 0 0.7 0" in="shadowBlurOuter1" type="matrix" result="shadowMatrixOuter1"></feColorMatrix>
            <feMerge>
                <feMergeNode in="shadowMatrixOuter1"></feMergeNode>
                <feMergeNode in="SourceGraphic"></feMergeNode>
            </feMerge>
        </filter>
        <circle id="path-10" cx="33.5" cy="47.5" r="18.5"></circle>
        <filter x="-50%" y="-50%" width="200%" height="200%" filterUnits="objectBoundingBox" id="filter-11">
            <feOffset dx="2" dy="3" in="SourceAlpha" result="shadowOffsetOuter1"></feOffset>
            <feGaussianBlur stdDeviation="1.5" in="shadowOffsetOuter1" result="shadowBlurOuter1"></feGaussianBlur>
            <feColorMatrix values="0 0 0 0 0.831438303   0 0 0 0 0.831319273   0 0 0 0 0.831478775  0 0 0 0.7 0" in="shadowBlurOuter1" type="matrix" result="shadowMatrixOuter1"></feColorMatrix>
            <feMerge>
                <feMergeNode in="shadowMatrixOuter1"></feMergeNode>
                <feMergeNode in="SourceGraphic"></feMergeNode>
            </feMerge>
        </filter>
    </defs>
    <g id="Page-1" stroke="none" stroke-width="1" fill="none" fill-rule="evenodd" sketch:type="MSPage">
        <g id="Canvas-1" sketch:type="MSLayerGroup" transform="translate(14.000000, 123.000000)">
            <rect id="Canvas" stroke="#979797" sketch:type="MSShapeGroup" x="0" y="0" width="396" height="251"></rect>
            <g id="Node-1" transform="translate(30.000000, 25.000000)">
                <rect id="Rectangle-2" stroke="#979797" fill="#F6F6F6" filter="url(#filter-1)" sketch:type="MSShapeGroup" x="30" y="0" width="67" height="80" rx="8"></rect>
                <path d="M37.9986126,3.28249283e-08 C33.5811008,3.28249283e-08 30,3.57375469 30,8.00264302 L30.0000001,19 L97,19 L97,8.00264302 C97,3.58290534 93.421476,3.28249285e-08 89.0013874,3.28249285e-08 L37.9986126,3.28249283e-08 Z" id="Rectangle-3" stroke="#979797" fill="#D8D8D8" sketch:type="MSShapeGroup"></path>
                <g id="Oval-1">
                    <use stroke="#979797" stroke-width="1" fill="#D8D8D8" sketch:type="MSShapeGroup" xlink:href="#path-3"></use>
                    <use stroke="none" fill="url(#linearGradient-2)" xlink:href="#path-3"></use>
                </g>
                <text fill="#FFFFFF" sketch:type="MSTextLayer" font-family="Futura" font-size="12" font-weight="420" line-spacing="16">
                    <tspan x="37" y="14" fill="#000000">Node 1</tspan>
                </text>
                <circle id="Oval-2" stroke="#979797" fill="#D8D8D8" sketch:type="MSShapeGroup" cx="30" cy="35" r="5"></circle>
                <circle id="Oval-2" stroke="#979797" fill="#D8D8D8" sketch:type="MSShapeGroup" cx="30" cy="54" r="5"></circle>
                <circle id="Oval-2" stroke="#979797" fill="#D8D8D8" sketch:type="MSShapeGroup" cx="97" cy="35" r="5"></circle>
                <text id="in-a" sketch:type="MSTextLayer" font-family="Futura" font-size="12" font-weight="420" sketch:alignment="right" line-spacing="16" fill="#000000">
                    <tspan x="1.62304688" y="37.1787109">in-a</tspan>
                </text>
                <text id="in-b" sketch:type="MSTextLayer" font-family="Futura" font-size="12" font-weight="420" sketch:alignment="right" line-spacing="16" fill="#000000">
                    <tspan x="1.62304688" y="57.5361328">in-b</tspan>
                </text>
                <text id="out" sketch:type="MSTextLayer" font-family="Futura" font-size="12" font-weight="420" line-spacing="16" fill="#000000">
                    <tspan x="106" y="37">out</tspan>
                </text>
            </g>
            <g id="Node-2" transform="translate(198.000000, 126.000000)">
                <rect id="Rectangle-2" stroke="#979797" fill="#F6F6F6" filter="url(#filter-4)" sketch:type="MSShapeGroup" x="30" y="0" width="67" height="80" rx="8"></rect>
                <path d="M37.9986126,3.28249283e-08 C33.5811008,3.28249283e-08 30,3.57375469 30,8.00264302 L30.0000001,19 L97,19 L97,8.00264302 C97,3.58290534 93.421476,3.28249285e-08 89.0013874,3.28249285e-08 L37.9986126,3.28249283e-08 Z" id="Rectangle-3" stroke="#979797" fill="#D8D8D8" sketch:type="MSShapeGroup"></path>
                <g id="Oval-1">
                    <use stroke="#979797" stroke-width="1" fill="#D8D8D8" sketch:type="MSShapeGroup" xlink:href="#path-6"></use>
                    <use stroke="none" fill="url(#linearGradient-5)" xlink:href="#path-6"></use>
                </g>
                <text fill="#FFFFFF" sketch:type="MSTextLayer" font-family="Futura" font-size="12" font-weight="420" line-spacing="16">
                    <tspan x="37" y="14" fill="#000000">Node 2</tspan>
                </text>
                <circle id="Oval-2" stroke="#979797" fill="#D8D8D8" sketch:type="MSShapeGroup" cx="30" cy="35" r="5"></circle>
                <circle id="Oval-2" stroke="#979797" fill="#D8D8D8" sketch:type="MSShapeGroup" cx="97" cy="35" r="5"></circle>
                <text id="in" sketch:type="MSTextLayer" font-family="Futura" font-size="12" font-weight="420" sketch:alignment="right" line-spacing="16" fill="#000000">
                    <tspan x="11.4316406" y="37.1787109">in</tspan>
                </text>
                <text id="out" sketch:type="MSTextLayer" font-family="Futura" font-size="12" font-weight="420" line-spacing="16" fill="#000000">
                    <tspan x="106" y="37">out</tspan>
                </text>
            </g>
            <g id="Node-3" transform="translate(46.000000, 143.000000)">
                <rect id="Rectangle-2" stroke="#979797" fill="#F6F6F6" filter="url(#filter-7)" sketch:type="MSShapeGroup" x="0" y="0" width="67" height="80" rx="8"></rect>
                <path d="M7.9986126,3.28249283e-08 C3.58110083,3.28249283e-08 4.91494719e-11,3.57375469 1.95772242e-08,8.00264302 L6.80673175e-08,19 L67,19 L67,8.00264302 C67,3.58290534 63.421476,3.28249285e-08 59.0013874,3.28249285e-08 L7.9986126,3.28249283e-08 Z" id="Rectangle-3" stroke="#979797" fill="#D8D8D8" sketch:type="MSShapeGroup"></path>
                <text fill="#FFFFFF" sketch:type="MSTextLayer" font-family="Futura" font-size="12" font-weight="420" line-spacing="16">
                    <tspan x="7" y="14" fill="#000000">Node 3</tspan>
                </text>
                <circle id="Oval-2" stroke="#979797" fill="#D8D8D8" sketch:type="MSShapeGroup" cx="67" cy="35" r="5"></circle>
                <text id="out-a" sketch:type="MSTextLayer" font-family="Futura" font-size="12" font-weight="420" line-spacing="16" fill="#000000">
                    <tspan x="76" y="37">out-a</tspan>
                </text>
                <circle id="Oval-2" stroke="#979797" fill="#D8D8D8" sketch:type="MSShapeGroup" cx="67" cy="54" r="5"></circle>
                <text id="out-b" sketch:type="MSTextLayer" font-family="Futura" font-size="12" font-weight="420" line-spacing="16" fill="#000000">
                    <tspan x="76" y="56">out-b</tspan>
                </text>
                <polygon id="Star-1" stroke="#979797" fill="#D8D8D8" sketch:type="MSShapeGroup" points="33.9999996 58 22.2442959 64.1803406 24.489435 51.0901703 14.9788695 41.8196606 28.1221494 39.9098287 34.0000002 28 39.8778547 39.9098316 53.0211336 41.8196701 43.5105642 51.0901728 45.7557037 64.1803408 "></polygon>
            </g>
        </g>
        <g id="Canvas-2" sketch:type="MSLayerGroup" transform="translate(444.000000, 84.000000)">
            <rect id="Canvas" stroke="#979797" sketch:type="MSShapeGroup" x="0" y="0" width="306" height="140"></rect>
            <g id="Node-1" transform="translate(17.000000, 32.000000)">
                <rect id="Rectangle-2" stroke="#979797" fill="#F6F6F6" filter="url(#filter-8)" sketch:type="MSShapeGroup" x="29" y="0" width="67" height="80" rx="8"></rect>
                <path d="M36.9986126,3.28249283e-08 C32.5811008,3.28249283e-08 29,3.57375469 29,8.00264302 L29.0000001,19 L96,19 L96,8.00264302 C96,3.58290534 92.421476,3.28249285e-08 88.0013874,3.28249285e-08 L36.9986126,3.28249283e-08 Z" id="Rectangle-3" stroke="#979797" fill="#D8D8D8" sketch:type="MSShapeGroup"></path>
                <text fill="#FFFFFF" sketch:type="MSTextLayer" font-family="Futura" font-size="12" font-weight="420" line-spacing="16">
                    <tspan x="36" y="14" fill="#000000">Node 1</tspan>
                </text>
                <circle id="Oval-2" stroke="#979797" fill="#D8D8D8" sketch:type="MSShapeGroup" cx="96" cy="35" r="5"></circle>
                <text id="out-a" sketch:type="MSTextLayer" font-family="Futura" font-size="12" font-weight="420" line-spacing="16" fill="#000000">
                    <tspan x="105" y="37">out-a</tspan>
                </text>
                <circle id="Oval-2" stroke="#979797" fill="#D8D8D8" sketch:type="MSShapeGroup" cx="96" cy="54" r="5"></circle>
                <text id="out-b" sketch:type="MSTextLayer" font-family="Futura" font-size="12" font-weight="420" line-spacing="16" fill="#000000">
                    <tspan x="105" y="56">out-b</tspan>
                </text>
                <polygon id="Star-1" stroke="#979797" fill="#D8D8D8" sketch:type="MSShapeGroup" points="62.9999996 58 51.2442959 64.1803406 53.489435 51.0901703 43.9788695 41.8196606 57.1221494 39.9098287 63.0000002 28 68.8778547 39.9098316 82.0211336 41.8196701 72.5105642 51.0901728 74.7557037 64.1803408 "></polygon>
                <circle id="Oval-2" stroke="#979797" fill="#D8D8D8" sketch:type="MSShapeGroup" cx="30" cy="35" r="5"></circle>
                <circle id="Oval-2" stroke="#979797" fill="#D8D8D8" sketch:type="MSShapeGroup" cx="30" cy="54" r="5"></circle>
                <text id="in-a" sketch:type="MSTextLayer" font-family="Futura" font-size="12" font-weight="420" sketch:alignment="right" line-spacing="16" fill="#000000">
                    <tspan x="1.62304688" y="37.1787109">in-a</tspan>
                </text>
                <text id="in-b" sketch:type="MSTextLayer" font-family="Futura" font-size="12" font-weight="420" sketch:alignment="right" line-spacing="16" fill="#000000">
                    <tspan x="1.62304688" y="57.5361328">in-b</tspan>
                </text>
            </g>
            <g id="Node-2" transform="translate(196.000000, 32.000000)">
                <rect id="Rectangle-2" stroke="#979797" fill="#F6F6F6" filter="url(#filter-9)" sketch:type="MSShapeGroup" x="0" y="0" width="67" height="80" rx="8"></rect>
                <path d="M7.9986126,3.28249283e-08 C3.58110083,3.28249283e-08 4.91494719e-11,3.57375469 1.95772242e-08,8.00264302 L6.80673175e-08,19 L67,19 L67,8.00264302 C67,3.58290534 63.421476,3.28249285e-08 59.0013874,3.28249285e-08 L7.9986126,3.28249283e-08 Z" id="Rectangle-3" stroke="#979797" fill="#D8D8D8" sketch:type="MSShapeGroup"></path>
                <text fill="#FFFFFF" sketch:type="MSTextLayer" font-family="Futura" font-size="12" font-weight="420" line-spacing="16">
                    <tspan x="7" y="14" fill="#000000">Node 2</tspan>
                </text>
                <g id="Oval-1">
                    <use stroke="#979797" stroke-width="1" fill="#D8D8D8" sketch:type="MSShapeGroup" xlink:href="#path-10"></use>
                    <use stroke="none" fill="url(#linearGradient-5)" xlink:href="#path-10"></use>
                </g>
            </g>
        </g>
        <g id="Canvas-2-copy" sketch:type="MSLayerGroup" transform="translate(444.000000, 255.000000)">
            <rect id="Canvas" stroke="#979797" sketch:type="MSShapeGroup" x="0" y="0" width="306" height="140"></rect>
            <g id="Node-2" transform="translate(120.000000, 30.000000)">
                <rect id="Rectangle-2" stroke="#979797" fill="#F6F6F6" filter="url(#filter-11)" sketch:type="MSShapeGroup" x="0" y="0" width="67" height="80" rx="8"></rect>
                <path d="M7.9986126,3.28249283e-08 C3.58110083,3.28249283e-08 4.91494719e-11,3.57375469 1.95772242e-08,8.00264302 L6.80673175e-08,19 L67,19 L67,8.00264302 C67,3.58290534 63.421476,3.28249285e-08 59.0013874,3.28249285e-08 L7.9986126,3.28249283e-08 Z" id="Rectangle-3" stroke="#979797" fill="#D8D8D8" sketch:type="MSShapeGroup"></path>
                <text id="Node-1" fill="#FFFFFF" sketch:type="MSTextLayer" font-family="Futura" font-size="12" font-weight="420" line-spacing="16">
                    <tspan x="7" y="14" fill="#000000">Node 1</tspan>
                </text>
                <polygon id="Star-1" stroke="#979797" fill="#D8D8D8" sketch:type="MSShapeGroup" points="33.9999996 58 22.2442959 64.1803406 24.489435 51.0901703 14.9788695 41.8196606 28.1221494 39.9098287 34.0000002 28 39.8778547 39.9098316 53.0211336 41.8196701 43.5105642 51.0901728 45.7557037 64.1803408 "></polygon>
            </g>
        </g>
        <path d="M141,183 L150.998075,183 C173.090528,183 191,200.91134 191,222.990396 L191,244.009604 C191,266.09569 208.908979,284 230.996548,284 L242,284" id="Path-1" stroke-opacity="0.503676471" stroke="#000000" stroke-width="2" stroke-linecap="round" sketch:type="MSShapeGroup"></path>
        <path d="M309,284.000004 L328.999978,284.000004 C351.09138,284.000004 369,266.091278 369,244.004481 L369,190.69177 C369,168.602852 386.909787,150.696247 409.004251,150.696247 L491.044725,150.696247" id="Path-2" stroke-opacity="0.499569164" stroke="#9B9B9B" stroke-width="2" stroke-linecap="round" sketch:type="MSShapeGroup"></path>
        <text id="canvas-1" fill="#3D94E1" sketch:type="MSTextLayer" font-family="Futura" font-size="12" font-weight="420" line-spacing="16">
            <tspan x="353" y="142" fill="#000000">canvas-1</tspan>
        </text>
        <text id="canvas-2" fill="#3D94E1" sketch:type="MSTextLayer" font-family="Futura" font-size="12" font-weight="420" line-spacing="16">
            <tspan x="694" y="100" fill="#000000">canvas-2</tspan>
        </text>
        <text id="canvas-3" fill="#3D94E1" sketch:type="MSTextLayer" font-family="Futura" font-size="12" font-weight="420" line-spacing="16">
            <tspan x="694" y="274" fill="#000000">canvas-3</tspan>
        </text>
        <text id="Patch-1" sketch:type="MSTextLayer" font-family="Futura" font-size="12" font-weight="420" line-spacing="16" fill="#000000">
            <tspan x="22" y="142">Patch 1</tspan>
        </text>
        <text id="Patch-2" sketch:type="MSTextLayer" font-family="Futura" font-size="12" font-weight="420" line-spacing="16" fill="#000000">
            <tspan x="450" y="100">Patch 2</tspan>
        </text>
        <text id="Network" sketch:type="MSTextLayer" font-family="Futura" font-size="19" font-weight="420" line-spacing="16" fill="#000000">
            <tspan x="373" y="37">Network</tspan>
        </text>
        <text id="Patch-3" sketch:type="MSTextLayer" font-family="Futura" font-size="12" font-weight="420" line-spacing="16" fill="#000000">
            <tspan x="451" y="274">Patch 3</tspan>
        </text>
        <path d="M13,58 L13,55.9590932 C13,49.3345691 18.3765695,43.9643312 24.9969455,43.9643312 L400.048703,43.9643312 C406.674433,43.9643312 412.045648,38.5883844 412.045648,33.9999084 L412.045648,33.9999084 L412.045648,33.9999084 C412.020437,39.5228065 417.379771,44 424.008124,44 L735.99803,44 C742.629934,44 748.006154,49.3727264 748.006154,55.9941413 L748.006154,58" id="Path-3" stroke="#4990E2" stroke-width="2" sketch:type="MSShapeGroup"></path>
        <path d="M254.5,94.5 L200.5,214.5" id="Path-4" stroke="#4990E2" stroke-linecap="round" sketch:type="MSShapeGroup"></path>
        <path id="Path-4-decoration-1" d="M202.438401,202.881873 C201.84474,206.759819 201.335887,210.083773 200.742226,213.961719 C203.250922,210.945539 205.401233,208.360241 207.909929,205.344061" stroke="#4990E2" stroke-linecap="round"></path>
        <path d="M292,95 L361,186" id="Path-5" stroke="#3D94E1" stroke-linecap="round" sketch:type="MSShapeGroup"></path>
        <path id="Path-5-decoration-1" d="M351.962395,179.046125 C355.08293,181.423763 357.757674,183.461739 360.878209,185.839377 C359.431031,182.19293 358.190593,179.067404 356.743415,175.420956" stroke="#3D94E1" stroke-linecap="round"></path>
        <text id="link-(connection)" sketch:type="MSTextLayer" font-family="Futura" font-size="12" font-weight="420" line-spacing="16" text-decoration="underline" fill="#000000">
            <tspan x="231" y="83">link (connection)</tspan>
        </text>
    </g>
</svg>