<?xml version="1.0" encoding="UTF-8" standalone="no"?>
<svg width="1184px" height="954px" viewBox="0 0 1184 954" version="1.1" xmlns="http://www.w3.org/2000/svg" xmlns:xlink="http://www.w3.org/1999/xlink" xmlns:sketch="http://www.bohemiancoding.com/sketch/ns">
    <title>rpd-network@2x</title>
    <description>Created with Sketch (http://www.bohemiancoding.com/sketch)</description>
    <defs></defs>
    <g id="Page-1" stroke="none" stroke-width="1" fill="none" fill-rule="evenodd" sketch:type="MSPage">
        <rect id="Rectangle-21" sketch:type="MSShapeGroup" x="0" y="0" width="1184" height="954"></rect>
        <rect id="Rectangle-1" fill="#ECECEC" sketch:type="MSShapeGroup" x="80" y="73" width="1042" height="526"></rect>
        <rect id="Rectangle-1" sketch:type="MSShapeGroup" x="70" y="63" width="1042" height="526"></rect>
        <rect id="Rectangle-1" fill="#ECECEC" sketch:type="MSShapeGroup" x="80" y="629" width="1042" height="272"></rect>
        <rect id="Rectangle-1" sketch:type="MSShapeGroup" x="70" y="619" width="1042" height="272"></rect>
        <g id="Node" sketch:type="MSLayerGroup" transform="translate(159.000000, 165.000000)">
            <rect id="Rectangle-22" fill="#D4D4D4" sketch:type="MSShapeGroup" x="14" y="11" width="105" height="165"></rect>
            <path d="M5,18 L5,168 L111,168 L111,18 L5,18 Z" id="Rectangle-2" stroke="#000000" stroke-width="2" fill="#FFFFFF" sketch:type="MSShapeGroup"></path>
            <rect id="Rectangle-3" stroke="#000000" stroke-width="2" fill="#000000" sketch:type="MSShapeGroup" x="5" y="2" width="106" height="18"></rect>
            <text id="My-Node" sketch:type="MSTextLayer" font-family="Lucida Grande" font-size="10" font-weight="normal" line-spacing="16" fill="#FFFFFF">
                <tspan x="12" y="10">My Node</tspan>
            </text>
            <circle id="Oval-1" stroke="#000000" fill="#FFFFFF" sketch:type="MSShapeGroup" cx="6" cy="48" r="6"></circle>
            <circle id="Oval-1" stroke="#000000" fill="#FFFFFF" sketch:type="MSShapeGroup" cx="6" cy="77" r="6"></circle>
            <circle id="Oval-1" stroke="#000000" fill="#FFFFFF" sketch:type="MSShapeGroup" cx="6" cy="105" r="6"></circle>
            <circle id="Oval-1" stroke="#000000" fill="#FFFFFF" sketch:type="MSShapeGroup" cx="6" cy="137" r="6"></circle>
            <circle id="Oval-1" stroke="#000000" fill="#FFFFFF" sketch:type="MSShapeGroup" cx="109" cy="48" r="6"></circle>
            <circle id="Oval-1" stroke="#000000" fill="#FFFFFF" sketch:type="MSShapeGroup" cx="109" cy="77" r="6"></circle>
            <circle id="Oval-1" stroke="#000000" fill="#FFFFFF" sketch:type="MSShapeGroup" cx="109" cy="105" r="6"></circle>
            <rect id="Rectangle-4" stroke="#000000" stroke-dasharray="5" sketch:type="MSShapeGroup" x="19" y="33" width="78" height="120"></rect>
        </g>
        <g id="Node" sketch:type="MSLayerGroup" transform="translate(289.000000, 378.000000)">
            <rect id="Rectangle-22" fill="#D4D4D4" sketch:type="MSShapeGroup" x="14" y="11" width="105" height="165"></rect>
            <path d="M5,18 L5,168 L111,168 L111,18 L5,18 Z" id="Rectangle-2" stroke="#000000" stroke-width="2" fill="#FFFFFF" sketch:type="MSShapeGroup"></path>
            <rect id="Rectangle-3" stroke="#000000" stroke-width="2" fill="#000000" sketch:type="MSShapeGroup" x="5" y="2" width="106" height="18"></rect>
            <text id="My-Node" sketch:type="MSTextLayer" font-family="Lucida Grande" font-size="10" font-weight="normal" line-spacing="16" fill="#FFFFFF">
                <tspan x="12" y="10">My Node</tspan>
            </text>
            <circle id="Oval-1" stroke="#000000" fill="#FFFFFF" sketch:type="MSShapeGroup" cx="6" cy="48" r="6"></circle>
            <circle id="Oval-1" stroke="#000000" fill="#FFFFFF" sketch:type="MSShapeGroup" cx="6" cy="77" r="6"></circle>
            <circle id="Oval-1" stroke="#000000" fill="#FFFFFF" sketch:type="MSShapeGroup" cx="6" cy="105" r="6"></circle>
            <circle id="Oval-1" stroke="#000000" fill="#FFFFFF" sketch:type="MSShapeGroup" cx="6" cy="137" r="6"></circle>
            <circle id="Oval-1" stroke="#000000" fill="#FFFFFF" sketch:type="MSShapeGroup" cx="109" cy="48" r="6"></circle>
            <circle id="Oval-1" stroke="#000000" fill="#FFFFFF" sketch:type="MSShapeGroup" cx="109" cy="77" r="6"></circle>
            <circle id="Oval-1" stroke="#000000" fill="#FFFFFF" sketch:type="MSShapeGroup" cx="109" cy="105" r="6"></circle>
            <rect id="Rectangle-4" stroke="#000000" stroke-dasharray="5" sketch:type="MSShapeGroup" x="19" y="33" width="78" height="120"></rect>
        </g>
        <g id="Node" sketch:type="MSLayerGroup" transform="translate(754.000000, 695.000000)">
            <rect id="Rectangle-22" fill="#D4D4D4" sketch:type="MSShapeGroup" x="14" y="11" width="105" height="165"></rect>
            <path d="M5,18 L5,168 L111,168 L111,18 L5,18 Z" id="Rectangle-2" stroke="#000000" stroke-width="2" fill="#FFFFFF" sketch:type="MSShapeGroup"></path>
            <rect id="Rectangle-3" stroke="#000000" stroke-width="2" fill="#000000" sketch:type="MSShapeGroup" x="5" y="2" width="106" height="18"></rect>
            <text id="My-Node" sketch:type="MSTextLayer" font-family="Lucida Grande" font-size="10" font-weight="normal" line-spacing="16" fill="#FFFFFF">
                <tspan x="12" y="10">My Node</tspan>
            </text>
            <circle id="Oval-1" stroke="#000000" fill="#FFFFFF" sketch:type="MSShapeGroup" cx="6" cy="48" r="6"></circle>
            <circle id="Oval-1" stroke="#000000" fill="#FFFFFF" sketch:type="MSShapeGroup" cx="6" cy="77" r="6"></circle>
            <circle id="Oval-1" stroke="#000000" fill="#FFFFFF" sketch:type="MSShapeGroup" cx="6" cy="105" r="6"></circle>
            <circle id="Oval-1" stroke="#000000" fill="#FFFFFF" sketch:type="MSShapeGroup" cx="6" cy="137" r="6"></circle>
            <circle id="Oval-1" stroke="#000000" fill="#FFFFFF" sketch:type="MSShapeGroup" cx="109" cy="48" r="6"></circle>
            <circle id="Oval-1" stroke="#000000" fill="#FFFFFF" sketch:type="MSShapeGroup" cx="109" cy="77" r="6"></circle>
            <circle id="Oval-1" stroke="#000000" fill="#FFFFFF" sketch:type="MSShapeGroup" cx="109" cy="105" r="6"></circle>
            <rect id="Rectangle-4" stroke="#000000" stroke-dasharray="5" sketch:type="MSShapeGroup" x="19" y="33" width="78" height="120"></rect>
        </g>
        <g id="Node" sketch:type="MSLayerGroup" transform="translate(530.000000, 255.000000)">
            <rect id="Rectangle-22" fill="#D4D4D4" sketch:type="MSShapeGroup" x="13" y="10" width="105" height="165"></rect>
            <path d="M5,18 L5,168 L111,168 L111,18 L5,18 Z" id="Rectangle-2" stroke="#000000" stroke-width="2" fill="#FFFFFF" sketch:type="MSShapeGroup"></path>
            <rect id="Rectangle-3" stroke="#000000" stroke-width="2" fill="#000000" sketch:type="MSShapeGroup" x="5" y="2" width="106" height="18"></rect>
            <text id="My-Node" sketch:type="MSTextLayer" font-family="Lucida Grande" font-size="10" font-weight="normal" line-spacing="16" fill="#FFFFFF">
                <tspan x="12" y="10">My Node</tspan>
            </text>
            <circle id="Oval-1" stroke="#000000" fill="#FFFFFF" sketch:type="MSShapeGroup" cx="6" cy="48" r="6"></circle>
            <circle id="Oval-1" stroke="#000000" fill="#FFFFFF" sketch:type="MSShapeGroup" cx="6" cy="77" r="6"></circle>
            <circle id="Oval-1" stroke="#000000" fill="#FFFFFF" sketch:type="MSShapeGroup" cx="6" cy="105" r="6"></circle>
            <circle id="Oval-1" stroke="#000000" fill="#FFFFFF" sketch:type="MSShapeGroup" cx="6" cy="137" r="6"></circle>
            <circle id="Oval-1" stroke="#000000" fill="#FFFFFF" sketch:type="MSShapeGroup" cx="109" cy="48" r="6"></circle>
            <circle id="Oval-1" stroke="#000000" fill="#FFFFFF" sketch:type="MSShapeGroup" cx="109" cy="77" r="6"></circle>
            <circle id="Oval-1" stroke="#000000" fill="#FFFFFF" sketch:type="MSShapeGroup" cx="109" cy="105" r="6"></circle>
            <rect id="Rectangle-4" stroke="#000000" stroke-dasharray="5" sketch:type="MSShapeGroup" x="19" y="33" width="78" height="120"></rect>
        </g>
        <g id="Node" sketch:type="MSLayerGroup" transform="translate(770.000000, 390.000000)">
            <rect id="Rectangle-22" fill="#D4D4D4" sketch:type="MSShapeGroup" x="13" y="9" width="105" height="165"></rect>
            <path d="M5,18 L5,168 L111,168 L111,18 L5,18 Z" id="Rectangle-2" stroke="#000000" stroke-width="2" fill="#FFFFFF" sketch:type="MSShapeGroup"></path>
            <rect id="Rectangle-3" stroke="#000000" stroke-width="2" fill="#000000" sketch:type="MSShapeGroup" x="5" y="2" width="106" height="18"></rect>
            <text id="My-Node" sketch:type="MSTextLayer" font-family="Lucida Grande" font-size="10" font-weight="normal" line-spacing="16" fill="#FFFFFF">
                <tspan x="12" y="10">My Node</tspan>
            </text>
            <circle id="Oval-1" stroke="#000000" fill="#FFFFFF" sketch:type="MSShapeGroup" cx="6" cy="48" r="6"></circle>
            <circle id="Oval-1" stroke="#000000" fill="#FFFFFF" sketch:type="MSShapeGroup" cx="6" cy="77" r="6"></circle>
            <circle id="Oval-1" stroke="#000000" fill="#FFFFFF" sketch:type="MSShapeGroup" cx="6" cy="105" r="6"></circle>
            <circle id="Oval-1" stroke="#000000" fill="#FFFFFF" sketch:type="MSShapeGroup" cx="6" cy="137" r="6"></circle>
            <circle id="Oval-1" stroke="#000000" fill="#FFFFFF" sketch:type="MSShapeGroup" cx="109" cy="48" r="6"></circle>
            <circle id="Oval-1" stroke="#000000" fill="#FFFFFF" sketch:type="MSShapeGroup" cx="109" cy="77" r="6"></circle>
            <circle id="Oval-1" stroke="#000000" fill="#FFFFFF" sketch:type="MSShapeGroup" cx="109" cy="105" r="6"></circle>
            <rect id="Rectangle-4" stroke="#000000" stroke-dasharray="5" sketch:type="MSShapeGroup" x="19" y="33" width="78" height="120"></rect>
        </g>
        <g id="Node" sketch:type="MSLayerGroup" transform="translate(254.000000, 681.000000)">
            <rect id="Rectangle-22" fill="#D4D4D4" sketch:type="MSShapeGroup" x="14" y="9" width="105" height="165"></rect>
            <path d="M5,18 L5,168 L111,168 L111,18 L5,18 Z" id="Rectangle-2" stroke="#000000" stroke-width="2" fill="#FFFFFF" sketch:type="MSShapeGroup"></path>
            <rect id="Rectangle-3" stroke="#000000" stroke-width="2" fill="#000000" sketch:type="MSShapeGroup" x="5" y="2" width="106" height="18"></rect>
            <text id="My-Node" sketch:type="MSTextLayer" font-family="Lucida Grande" font-size="10" font-weight="normal" line-spacing="16" fill="#FFFFFF">
                <tspan x="12" y="10">My Node</tspan>
            </text>
            <circle id="Oval-1" stroke="#000000" fill="#FFFFFF" sketch:type="MSShapeGroup" cx="6" cy="48" r="6"></circle>
            <circle id="Oval-1" stroke="#000000" fill="#FFFFFF" sketch:type="MSShapeGroup" cx="6" cy="77" r="6"></circle>
            <circle id="Oval-1" stroke="#000000" fill="#FFFFFF" sketch:type="MSShapeGroup" cx="6" cy="105" r="6"></circle>
            <circle id="Oval-1" stroke="#000000" fill="#FFFFFF" sketch:type="MSShapeGroup" cx="6" cy="137" r="6"></circle>
            <circle id="Oval-1" stroke="#000000" fill="#FFFFFF" sketch:type="MSShapeGroup" cx="109" cy="48" r="6"></circle>
            <circle id="Oval-1" stroke="#000000" fill="#FFFFFF" sketch:type="MSShapeGroup" cx="109" cy="77" r="6"></circle>
            <circle id="Oval-1" stroke="#000000" fill="#FFFFFF" sketch:type="MSShapeGroup" cx="109" cy="105" r="6"></circle>
            <rect id="Rectangle-4" stroke="#000000" stroke-dasharray="5" sketch:type="MSShapeGroup" x="19" y="33" width="78" height="120"></rect>
        </g>
        <g id="Node" sketch:type="MSLayerGroup" transform="translate(490.000000, 676.000000)">
            <rect id="Rectangle-22" fill="#D4D4D4" sketch:type="MSShapeGroup" x="13" y="9" width="105" height="165"></rect>
            <path d="M5,18 L5,168 L111,168 L111,18 L5,18 Z" id="Rectangle-2" stroke="#000000" stroke-width="2" fill="#FFFFFF" sketch:type="MSShapeGroup"></path>
            <rect id="Rectangle-3" stroke="#000000" stroke-width="2" fill="#000000" sketch:type="MSShapeGroup" x="5" y="2" width="106" height="18"></rect>
            <text id="My-Node" sketch:type="MSTextLayer" font-family="Lucida Grande" font-size="10" font-weight="normal" line-spacing="16" fill="#FFFFFF">
                <tspan x="12" y="10">My Node</tspan>
            </text>
            <circle id="Oval-1" stroke="#000000" fill="#FFFFFF" sketch:type="MSShapeGroup" cx="6" cy="48" r="6"></circle>
            <circle id="Oval-1" stroke="#000000" fill="#FFFFFF" sketch:type="MSShapeGroup" cx="6" cy="77" r="6"></circle>
            <circle id="Oval-1" stroke="#000000" fill="#FFFFFF" sketch:type="MSShapeGroup" cx="6" cy="105" r="6"></circle>
            <circle id="Oval-1" stroke="#000000" fill="#FFFFFF" sketch:type="MSShapeGroup" cx="6" cy="137" r="6"></circle>
            <circle id="Oval-1" stroke="#000000" fill="#FFFFFF" sketch:type="MSShapeGroup" cx="109" cy="48" r="6"></circle>
            <circle id="Oval-1" stroke="#000000" fill="#FFFFFF" sketch:type="MSShapeGroup" cx="109" cy="77" r="6"></circle>
            <circle id="Oval-1" stroke="#000000" fill="#FFFFFF" sketch:type="MSShapeGroup" cx="109" cy="105" r="6"></circle>
            <rect id="Rectangle-4" stroke="#000000" stroke-dasharray="5" sketch:type="MSShapeGroup" x="19" y="33" width="78" height="120"></rect>
        </g>
        <g id="Node" sketch:type="MSLayerGroup" transform="translate(739.000000, 120.000000)">
            <rect id="Rectangle-22" fill="#D4D4D4" sketch:type="MSShapeGroup" x="14" y="11" width="105" height="165"></rect>
            <path d="M5,18 L5,168 L111,168 L111,18 L5,18 Z" id="Rectangle-2" stroke="#000000" stroke-width="2" fill="#FFFFFF" sketch:type="MSShapeGroup"></path>
            <rect id="Rectangle-3" stroke="#000000" stroke-width="2" fill="#000000" sketch:type="MSShapeGroup" x="5" y="2" width="106" height="18"></rect>
            <text id="My-Node" sketch:type="MSTextLayer" font-family="Lucida Grande" font-size="10" font-weight="normal" line-spacing="16" fill="#FFFFFF">
                <tspan x="12" y="10">My Node</tspan>
            </text>
            <circle id="Oval-1" stroke="#000000" fill="#FFFFFF" sketch:type="MSShapeGroup" cx="6" cy="48" r="6"></circle>
            <circle id="Oval-1" stroke="#000000" fill="#FFFFFF" sketch:type="MSShapeGroup" cx="6" cy="77" r="6"></circle>
            <circle id="Oval-1" stroke="#000000" fill="#FFFFFF" sketch:type="MSShapeGroup" cx="6" cy="105" r="6"></circle>
            <circle id="Oval-1" stroke="#000000" fill="#FFFFFF" sketch:type="MSShapeGroup" cx="6" cy="137" r="6"></circle>
            <circle id="Oval-1" stroke="#000000" fill="#FFFFFF" sketch:type="MSShapeGroup" cx="109" cy="48" r="6"></circle>
            <circle id="Oval-1" stroke="#000000" fill="#FFFFFF" sketch:type="MSShapeGroup" cx="109" cy="77" r="6"></circle>
            <circle id="Oval-1" stroke="#000000" fill="#FFFFFF" sketch:type="MSShapeGroup" cx="109" cy="105" r="6"></circle>
            <rect id="Rectangle-4" stroke="#000000" stroke-dasharray="5" sketch:type="MSShapeGroup" x="19" y="33" width="78" height="120"></rect>
        </g>
        <rect id="Rectangle-32" fill="#D8D8D8" sketch:type="MSShapeGroup" x="11" y="14" width="119" height="35"></rect>
        <text id="Network" stroke="#979797" fill="#000000" sketch:type="MSTextLayer" font-family="Lucida Grande" font-size="24" font-weight="normal" line-spacing="16">
            <tspan x="21" y="52">Network</tspan>
        </text>
        <text id="canvas" sketch:type="MSTextLayer" transform="translate(1151.500000, 345.000000) rotate(-90.000000) translate(-1151.500000, -345.000000) " font-family="Lucida Grande" font-size="24" font-weight="normal" line-spacing="16" fill="#000000">
            <tspan x="1112" y="360">canvas</tspan>
        </text>
        <text id="canvas" sketch:type="MSTextLayer" transform="translate(1151.500000, 763.000000) rotate(-90.000000) translate(-1151.500000, -763.000000) " font-family="Lucida Grande" font-size="24" font-weight="normal" line-spacing="16" fill="#000000">
            <tspan x="1112" y="778">canvas</tspan>
        </text>
        <rect id="Rectangle-33" fill="#FFFFFF" sketch:type="MSShapeGroup" x="93" y="87" width="77" height="30"></rect>
        <text id="Patch" sketch:type="MSTextLayer" font-family="Lucida Grande" font-size="24" font-weight="normal" line-spacing="16" fill="#000000">
            <tspan x="99" y="121">Patch</tspan>
        </text>
        <rect id="Rectangle-33" fill="#FFFFFF" sketch:type="MSShapeGroup" x="92" y="637" width="77" height="30"></rect>
        <text id="Patch" sketch:type="MSTextLayer" font-family="Lucida Grande" font-size="24" font-weight="normal" line-spacing="16" fill="#000000">
            <tspan x="99" y="673">Patch</tspan>
        </text>
        <path d="M268,213 L415,213 L491,332 L536,332" id="Path-1" stroke="#000000" stroke-width="3" stroke-linecap="round" sketch:type="MSShapeGroup"></path>
        <path d="M639,360 L655,360 L731,467 L776,467" id="Path-1" stroke="#000000" stroke-width="3" stroke-linecap="round" sketch:type="MSShapeGroup"></path>
        <path d="M639,257 L675,257 L715,331 L745,332" id="Path-1" stroke="#000000" stroke-width="3" stroke-linecap="round" sketch:type="MSShapeGroup" transform="translate(692.000000, 294.500000) scale(1, -1) translate(-692.000000, -294.500000) "></path>
        <path d="M363,724 L399,724 L466,786 L496,786" id="Path-1" stroke="#000000" stroke-width="3" stroke-linecap="round" sketch:type="MSShapeGroup" transform="translate(429.500000, 755.000000) scale(1, -1) translate(-429.500000, -755.000000) "></path>
        <path d="M363,729 L399,729 L466,753 L496,753" id="Path-1" stroke="#000000" stroke-width="3" stroke-linecap="round" sketch:type="MSShapeGroup"></path>
        <path d="M268,213 L415,213 L491,496 L776,495" id="Path-1" stroke="#000000" stroke-width="3" stroke-linecap="round" sketch:type="MSShapeGroup"></path>
    </g>
</svg>