<?xml version="1.0" encoding="UTF-8" standalone="no"?>
<svg width="223px" height="381px" viewBox="0 0 223 381" version="1.1" xmlns="https://www.w3.org/2000/svg" xmlns:xlink="https://www.w3.org/1999/xlink" xmlns:sketch="https://www.bohemiancoding.com/sketch/ns">
    <title>target@2x</title>
    <description>Created with Sketch (https://www.bohemiancoding.com/sketch)</description>
    <defs>
        <linearGradient x1="50%" y1="0%" x2="50%" y2="100%" id="linearGradient-1">
            <stop stop-color="#FFFFFF" offset="0%"></stop>
            <stop stop-color="#E7E7E7" offset="100%"></stop>
        </linearGradient>
        <radialGradient cx="50%" cy="47.1940104%" fx="50%" fy="47.1940104%" r="56.8925142%" id="radialGradient-2" stop-color="#FFFFFF">
            <stop offset="0%"></stop>
            <stop stop-opacity="0.815228631" offset="100%"></stop>
        </radialGradient>
    </defs>
    <g id="Page-1" stroke="none" stroke-width="1" fill="none" fill-rule="evenodd" sketch:type="MSPage">
        <rect id="Rectangle-16" sketch:type="MSShapeGroup" x="-994" y="7" width="1209" height="367"></rect>
        <rect id="Rectangle-16" fill="#D4D4D4" sketch:type="MSShapeGroup" x="-975" y="25" width="1178" height="337"></rect>
        <rect id="Rectangle-16" fill="#FFFFFF" sketch:type="MSShapeGroup" x="-985" y="16" width="1178" height="337"></rect>
        <text id="Target" sketch:type="MSTextLayer" font-family="Lucida Grande" font-size="13" font-weight="normal" line-spacing="16" fill="#000000">
            <tspan x="89" y="35">Target</tspan>
        </text>
        <g id="div-target" sketch:type="MSLayerGroup" transform="translate(49.000000, 81.000000)">
            <ellipse id="Oval-1" fill="#D8D8D8" sketch:type="MSShapeGroup" cx="63.5" cy="25" rx="60.5" ry="21"></ellipse>
            <ellipse id="Oval-1" fill="url(#linearGradient-1)" sketch:type="MSShapeGroup" cx="60.5" cy="21" rx="60.5" ry="21"></ellipse>
            <text id="&lt;div-/&gt;" sketch:type="MSTextLayer" font-family="Input Mono" font-size="13" font-weight="normal" line-spacing="16" fill="#000000">
                <tspan x="31" y="25">&lt;div /&gt;</tspan>
            </text>
        </g>
        <g id="svg-target" sketch:type="MSLayerGroup" transform="translate(49.000000, 141.000000)">
            <ellipse id="Oval-1" fill="#D8D8D8" sketch:type="MSShapeGroup" cx="64.5" cy="25" rx="60.5" ry="21"></ellipse>
            <ellipse id="Oval-1" fill="url(#linearGradient-1)" sketch:type="MSShapeGroup" cx="60.5" cy="21" rx="60.5" ry="21"></ellipse>
            <text id="&lt;svg-/&gt;" sketch:type="MSTextLayer" font-family="Input Mono" font-size="13" font-weight="normal" line-spacing="16" fill="#000000">
                <tspan x="31" y="25">&lt;svg /&gt;</tspan>
            </text>
        </g>
        <g id="canvas-target" sketch:type="MSLayerGroup" transform="translate(49.000000, 201.000000)">
            <ellipse id="Oval-1" fill="#D8D8D8" sketch:type="MSShapeGroup" cx="63.5" cy="25" rx="60.5" ry="21"></ellipse>
            <ellipse id="Oval-1" fill="url(#linearGradient-1)" sketch:type="MSShapeGroup" cx="60.5" cy="21" rx="60.5" ry="21"></ellipse>
            <text id="&lt;canvas-/&gt;" sketch:type="MSTextLayer" font-family="Input Mono" font-size="13" font-weight="normal" line-spacing="16" fill="#000000">
                <tspan x="23" y="25">&lt;canvas /&gt;</tspan>
            </text>
        </g>
        <g id="...-target" sketch:type="MSLayerGroup" transform="translate(49.000000, 262.000000)">
            <ellipse id="Oval-1" fill="#D8D8D8" sketch:type="MSShapeGroup" cx="64.5" cy="25" rx="60.5" ry="21"></ellipse>
            <ellipse id="Oval-1" fill="url(#linearGradient-1)" sketch:type="MSShapeGroup" cx="60.5" cy="21" rx="60.5" ry="21"></ellipse>
            <text id="&lt;...-/&gt;" sketch:type="MSTextLayer" font-family="Input Mono" font-size="13" font-weight="normal" line-spacing="16" fill="#000000">
                <tspan x="31" y="25">&lt;... /&gt;</tspan>
            </text>
        </g>
        <path d="M-13,108 L39,173" id="Line" stroke="#D0011B" stroke-width="2" stroke-linecap="square" fill="#D0011B" sketch:type="MSShapeGroup" transform="translate(13.000000, 140.500000) scale(-1, 1) translate(-13.000000, -140.500000) "></path>
        <path id="Line-decoration-1" d="M-12.500244,108.624695 C-9.31898445,110.920449 -6.59219065,112.888239 -3.41093106,115.183993 C-5.05075558,116.495853 -6.45631945,117.620304 -8.09614397,118.932163 C-9.6375789,115.324549 -10.958809,112.232309 -12.500244,108.624695 C-12.500244,108.624695 -12.500244,108.624695 -12.500244,108.624695 Z" stroke="#D0011B" stroke-width="2" stroke-linecap="square" fill="#D0011B"></path>
        <path d="M-13,165 L39,190" id="Line" stroke="#3F7211" stroke-width="2" stroke-linecap="square" fill="#3F7211" sketch:type="MSShapeGroup" transform="translate(13.000000, 177.500000) scale(-1, 1) translate(-13.000000, -177.500000) "></path>
        <path id="Line-decoration-1" d="M-12.2789981,165.346636 C-8.41730474,166.038173 -5.10728189,166.63092 -1.24558849,167.322458 C-2.15550685,169.215088 -2.93543688,170.837343 -3.84535524,172.729973 C-6.79713017,170.145805 -9.32722304,167.930804 -12.2789981,165.346636 C-12.2789981,165.346636 -12.2789981,165.346636 -12.2789981,165.346636 Z" stroke="#3F7211" stroke-width="2" stroke-linecap="square" fill="#3F7211"></path>
        <path d="M-13,220 L39,201" id="Line" stroke="#3D94E1" stroke-width="2" stroke-linecap="square" fill="#3D94E1" sketch:type="MSShapeGroup" transform="translate(13.000000, 210.500000) scale(-1, 1) translate(-13.000000, -210.500000) "></path>
        <path id="Line-decoration-1" d="M-12.2485881,219.725446 C-9.05851926,217.441948 -6.32417457,215.484665 -3.13410568,213.201167 C-2.41340051,215.173623 -1.79565321,216.8643 -1.07494804,218.836757 C-4.98572199,219.147798 -8.33781402,219.414404 -12.2485881,219.725446 C-12.2485881,219.725446 -12.2485881,219.725446 -12.2485881,219.725446 Z" stroke="#3D94E1" stroke-width="2" stroke-linecap="square" fill="#3D94E1"></path>
        <path d="M-13,276 L39,212" id="Line" stroke="#3D94E1" stroke-width="2" stroke-linecap="square" fill="#3D94E1" sketch:type="MSShapeGroup" transform="translate(13.000000, 244.000000) scale(-1, 1) translate(-13.000000, -244.000000) "></path>
        <path id="Line-decoration-1" d="M-12.4955259,275.379109 C-10.9268055,271.783276 -9.58218796,268.701133 -8.01346742,265.1053 C-6.38362811,266.429544 -4.98662298,267.564611 -3.35678366,268.888856 C-6.55534337,271.160444 -9.29696608,273.10752 -12.4955259,275.379109 C-12.4955259,275.379109 -12.4955259,275.379109 -12.4955259,275.379109 Z" stroke="#3D94E1" stroke-width="2" stroke-linecap="square" fill="#3D94E1"></path>
        <path d="M178,-15 L255,-15 L255,405 L-1012,405 L-1012,-15 L43,-15 L43,392 L178,392 L178,-15 Z" id="Target-Frame" fill="url(#radialGradient-2)" sketch:type="MSShapeGroup"></path>
    </g>
</svg>